<svg xmlns="http://www.w3.org/2000/svg" width="44.625" height="51" viewBox="0 0 44.625 51">
  <g id="Group_685" data-name="Group 685" transform="translate(-1173.688 -5199.375)">
    <g id="Rectangle_715" data-name="Rectangle 715" transform="translate(1180 5207)" fill="#fff" stroke="#707070" stroke-width="1">
      <rect width="35" height="33" stroke="none"/>
      <rect x="0.5" y="0.5" width="34" height="32" fill="none"/>
    </g>
    <path id="Path_2504" data-name="Path 2504" d="M7.293-20.4a2.717,2.717,0,0,0-2.6-2.83,2.717,2.717,0,0,0-2.6,2.83,2.734,2.734,0,0,0,2.6,2.83A2.717,2.717,0,0,0,7.293-20.4ZM-4.616-23.23a2.717,2.717,0,0,0-2.6,2.83,2.734,2.734,0,0,0,2.6,2.83,2.717,2.717,0,0,0,2.6-2.83A2.7,2.7,0,0,0-4.616-23.23ZM22.312-39.372a5.24,5.24,0,0,0-5.228-5.253h-34.17a5.24,5.24,0,0,0-5.228,5.253V-4.9A5.24,5.24,0,0,0-17.085.357H11.832L10.48-4.361C17.943,2.577,15.888.7,22.312,6.375ZM15.045-15.2s-2.167,3.7-7.8,3.876c0,0-.918-1.1-1.683-2.066a8.046,8.046,0,0,0,4.615-3.034,14.59,14.59,0,0,1-2.932,1.5A18.588,18.588,0,0,1-8.67-15.81c-.052-.035-.67-.375-1.046-.638a7.931,7.931,0,0,0,4.462,3.009c-.765.969-1.708,2.117-1.708,2.117C-12.6-11.5-14.739-15.2-14.739-15.2a34.148,34.148,0,0,1,3.672-14.866A12.61,12.61,0,0,1-3.9-32.742l.255.306A17.2,17.2,0,0,0-10.353-29.1s.561-.306,1.5-.739A21.667,21.667,0,0,1,10.2-29.1,16.972,16.972,0,0,0,3.85-32.334l.357-.408a12.61,12.61,0,0,1,7.165,2.677A34.148,34.148,0,0,1,15.045-15.2Z" transform="translate(1196 5244)" fill="#6c7ed0"/>
  </g>
</svg>
