<svg xmlns="http://www.w3.org/2000/svg" width="44.565" height="44.565" viewBox="0 0 44.565 44.565">
  <g id="Group_713" data-name="Group 713" transform="translate(-839.377 -6124.448)">
    <rect id="Rectangle_661" data-name="Rectangle 661" width="44.565" height="44.565" rx="4" transform="translate(839.377 6124.448)" fill="#1aa5e9"/>
    <path id="Path_2443" data-name="Path 2443" d="M27.017,31.782a15.75,15.75,0,0,1-16.906,0,11.1,11.1,0,0,0,8.14-2.3,5.352,5.352,0,0,1-5.114-3.757,7.591,7.591,0,0,0,2.452-.1,5.568,5.568,0,0,1-4.383-5.374v-.1a5.158,5.158,0,0,0,2.452.731,6.078,6.078,0,0,1-1.774-1.983,5.311,5.311,0,0,1,.1-5.374,15.31,15.31,0,0,0,11.271,5.74,5.506,5.506,0,0,1,5.322-6.731A5.621,5.621,0,0,1,32.6,14.25a11.147,11.147,0,0,0,3.5-1.3,5.437,5.437,0,0,1-2.4,3.026,11.769,11.769,0,0,0,3.131-.887,12.044,12.044,0,0,1-2.765,2.87C34.855,21.127,32.357,28.332,27.017,31.782Z" transform="translate(837.672 6123.495)" fill="#fff"/>
  </g>
</svg>
